<?xml version="1.0" encoding="UTF-8" standalone="no"?>
<!-- Created with Inkscape (http://www.inkscape.org/) -->

<svg
   width="128"
   height="128"
   viewBox="0 0 33.866666 33.866666"
   version="1.1"
   id="svg5"
   xml:space="preserve"
   inkscape:version="1.2.1 (9c6d41e410, 2022-07-14)"
   sodipodi:docname="canary.svg"
   inkscape:export-filename="canary-alive.png"
   inkscape:export-xdpi="96"
   inkscape:export-ydpi="96"
   xmlns:inkscape="http://www.inkscape.org/namespaces/inkscape"
   xmlns:sodipodi="http://sodipodi.sourceforge.net/DTD/sodipodi-0.dtd"
   xmlns="http://www.w3.org/2000/svg"
   xmlns:svg="http://www.w3.org/2000/svg"><sodipodi:namedview
     id="namedview7"
     pagecolor="#ffffff"
     bordercolor="#000000"
     borderopacity="0.25"
     inkscape:showpageshadow="2"
     inkscape:pageopacity="0.0"
     inkscape:pagecheckerboard="0"
     inkscape:deskcolor="#d1d1d1"
     inkscape:document-units="mm"
     showgrid="false"
     inkscape:zoom="2.0510461"
     inkscape:cx="-20.477355"
     inkscape:cy="47.049161"
     inkscape:window-width="1920"
     inkscape:window-height="1001"
     inkscape:window-x="-9"
     inkscape:window-y="916"
     inkscape:window-maximized="1"
     inkscape:current-layer="g1828" /><defs
     id="defs2" /><g
     inkscape:groupmode="layer"
     id="layer2"
     inkscape:label="canary alive"
     style="display:inline"
     transform="matrix(0.538088,0,0,0.538088,-38.198874,-63.702379)"><path
       style="opacity:1;fill:#ffcc00;stroke:none;stroke-width:8.417;stroke-linecap:round;stroke-linejoin:round;stroke-miterlimit:14.5"
       d="m 90.797837,175.93911 c -1.688416,1.17092 -3.007581,1.05124 -3.853471,-0.72262 l -0.03019,-3.37899 c -1.641434,1.11625 -3.031168,3.32751 -4.292494,6.0974 1.379509,-6.27238 5.137396,-13.94739 8.047741,-21.12257 0.463305,-4.50811 -0.411266,-4.86664 -1.74068,-3.81441 -4.486512,0.52713 -8.341111,3.22628 -12.303125,5.55621 -3.86154,-0.059 5.508656,-7.47705 15.213544,-15.08121 3.471438,-4.18258 8.237928,-8.3614 14.684348,-12.53535 2.68473,-5.3377 5.17119,-9.13128 12.56773,-9.16048 3.4892,0.0793 6.10212,1.26325 6.15154,3.16966 l -2.1016,3.30563 c -1.80867,2.34838 -5.38183,4.40027 -4.53501,7.19484 3.05805,2.30842 5.18071,0.87769 6.96736,-1.89617 -0.40886,5.15122 -0.0799,10.27957 -2.01557,15.47812 -6.72043,6.02196 -10.77467,8.58417 -17.92817,10.05275 -2.28909,0.48908 -5.52286,1.45794 -7.786994,1.97938 -3.501164,3.22946 -5.736618,8.35808 -7.044959,14.87781 z"
       id="path433"
       sodipodi:nodetypes="cccccccccccccccccc" /><path
       style="opacity:1;fill:#a05a2c;stroke:none;stroke-width:8.417;stroke-linecap:round;stroke-linejoin:round;stroke-miterlimit:14.5"
       d="m 110.70784,136.44214 c 0.37924,3.07001 -0.48576,2.5547 -3.00611,3.29824 -4.21198,1.24429 -7.810751,2.51655 -14.922776,7.37542 -2.930758,2.25201 -5.366339,3.81248 -8.476418,5.27194 -2.052044,0.96445 -3.605389,1.78251 -5.588759,2.7268 7.113344,-5.96652 11.026587,-10.80321 20.285519,-17.52725 3.151534,-3.01411 11.272254,-4.23004 11.708544,-1.14515 z"
       id="path1071"
       sodipodi:nodetypes="ccccccc" /><path
       style="opacity:1;fill:#554400;stroke:none;stroke-width:8.417;stroke-linecap:round;stroke-linejoin:round;stroke-miterlimit:14.5"
       d="m 100.0475,160.50763 c 1.30396,-0.0484 2.22973,0.16796 3.92832,-0.15667 2.20567,-0.19219 3.70914,-1.0316 5.39198,-1.70568 1.12855,-0.48688 1.99023,-0.89863 2.83245,-1.30489 -4.05249,1.04767 -8.22335,1.48895 -12.15275,3.16724 z"
       id="path1079"
       sodipodi:nodetypes="ccccc" /><path
       style="opacity:1;fill:#806600;stroke:none;stroke-width:8.417;stroke-linecap:round;stroke-linejoin:round;stroke-miterlimit:14.5"
       d="m 116.72861,129.45 c 0.72269,0.16027 1.34387,0.15987 1.96576,0.1606 0.56085,-0.51859 1.27166,-0.89793 1.19062,-2.01267 -0.28784,-0.54479 -0.70473,-1.03497 -1.80798,-1.23473 -0.55486,0.0411 -0.99678,-0.28552 -1.81177,0.60284 -0.13979,0.94686 -0.64026,2.03942 0.46337,2.48396 z"
       id="path585"
       sodipodi:nodetypes="cccccc" /><path
       style="opacity:1;fill:#2b2200;stroke:none;stroke-width:6.27632;stroke-linecap:round;stroke-linejoin:round;stroke-miterlimit:14.5"
       d="m 117.15463,129.18483 c 0.51983,0.12389 0.96665,0.12358 1.41398,0.12414 0.40342,-0.40087 0.9147,-0.69411 0.85641,-1.55581 -0.20704,-0.42113 -0.50691,-0.80004 -1.30048,-0.95446 -0.39911,0.0318 -0.71699,-0.22071 -1.30321,0.466 -0.10055,0.73193 -0.46054,1.57649 0.3333,1.92013 z"
       id="path585-4"
       sodipodi:nodetypes="cccccc" /><circle
       style="opacity:1;fill:#000000;stroke:none;stroke-width:8.417;stroke-linecap:round;stroke-linejoin:round;stroke-miterlimit:14.5"
       id="path740"
       cx="117.96094"
       cy="127.97395"
       r="0.99214995" /><path
       style="display:inline;opacity:1;fill:#917c6f;stroke:none;stroke-width:8.417;stroke-linecap:round;stroke-linejoin:round;stroke-miterlimit:14.5"
       d="m 125.97041,132.88959 c -0.15857,-0.17318 0.39719,-0.58448 3.06024,-1.6982 l -6.22746,-1.43431 1.24568,2.98311 z"
       id="path1136"
       sodipodi:nodetypes="ccccc" /><path
       style="opacity:1;fill:#806600;stroke:none;stroke-width:8.417;stroke-linecap:round;stroke-linejoin:round;stroke-miterlimit:14.5"
       d="m 102.27133,145.75711 c 2.6596,-1.67246 5.27694,-3.71945 8.02252,-4.6298 l 0.31747,-1.33712 c -5.09324,1.7437 -6.54767,-0.24392 -10.660081,0.0586 -1.12109,0.084 -2.233984,0.27429 -3.305976,0.99523 -1.530971,1.30023 -2.6886,2.57577 -5.366501,3.95183 0.431385,1.57147 2.174303,-0.2242 3.311305,-0.46428 -0.360421,0.50614 -0.316557,1.12936 -1.43451,1.34598 1.365198,-0.4561 -0.006,0.46734 4.637133,-1.6413 -0.902463,1.89938 -5.069445,3.24252 -7.604168,4.86378 3.780146,-1.72202 -0.230632,1.49055 11.340438,-5.16607 -0.48804,1.40083 -2.85288,4.65531 0.74237,2.02319 z"
       id="path796"
       sodipodi:nodetypes="cccccccccccc" /><path
       style="opacity:1;fill:#aa8800;stroke:none;stroke-width:8.417;stroke-linecap:round;stroke-linejoin:round;stroke-miterlimit:14.5"
       d="m 106.50638,142.44664 c -0.59384,1.00776 -1.36708,1.04902 -2.17513,0.90272 -0.42963,-0.50077 -0.4886,-0.98616 0.4995,-1.4281 0.73581,-0.35848 1.28542,-0.38338 1.69251,-0.15296 z"
       id="path798"
       sodipodi:nodetypes="ccccc" /><path
       style="opacity:1;fill:#806600;stroke:none;stroke-width:8.417;stroke-linecap:round;stroke-linejoin:round;stroke-miterlimit:14.5"
       d="m 77.948535,157.09894 c -0.956594,0.50356 -1.473361,0.56185 -1.266653,-0.11228 2.665186,-1.44432 4.552,-3.1858 8.484764,-4.14618 3.426351,-0.99288 3.677012,-0.87878 3.52171,-0.62317 -3.638559,1.18985 -7.159902,3.25426 -10.739821,4.88163 z"
       id="path800"
       sodipodi:nodetypes="ccccc" /><path
       style="opacity:1;fill:#ff7f2a;stroke:none;stroke-width:8.417;stroke-linecap:round;stroke-linejoin:round;stroke-miterlimit:14.5"
       d="m 125.24278,124.94675 c -0.8712,1.26606 -1.58475,2.72702 -2.81484,3.84026 -1.6691,1.51055 -3.34599,3.16049 -4.38689,5.08691 0.64518,3.6293 2.74482,2.43283 4.35748,2.85211 1.61203,-1.13325 3.09982,-2.30941 3.57188,-3.83644 -1.22849,-0.58105 -2.65569,-0.84542 -2.71198,-3.29466 -0.0959,-0.80903 0.57866,-1.26566 1.52135,-1.59967 0.58113,-0.32713 4.68554,4.19162 1.72007,-1.01346 -0.117,-0.59257 -0.48477,-1.25636 -1.25707,-2.03505 z"
       id="path802"
       sodipodi:nodetypes="csccccccc" /><path
       style="opacity:1;fill:#504416;stroke:none;stroke-width:8.417;stroke-linecap:round;stroke-linejoin:round;stroke-miterlimit:14.5"
       d="m 124.63447,126.80417 c -1.45404,1.88752 -2.01585,2.97079 -1.26888,3.3187 1.01405,0.96895 1.7551,2.21034 4.58919,1.36302 1.75422,-0.0509 1.14205,-0.93587 1.05564,-1.63553 -0.54157,-1.80673 -2.37595,-2.56281 -3.56918,-3.83994 z"
       id="path858"
       sodipodi:nodetypes="cccccc" /><path
       style="opacity:1;fill:#a05a2c;stroke:none;stroke-width:8.417;stroke-linecap:round;stroke-linejoin:round;stroke-miterlimit:14.5"
       d="m 125.57755,134.54353 c -7.40781,19.54845 -17.46045,23.67918 -27.734756,26.51777 8.731906,-2.78469 19.121626,-2.83601 25.958976,-11.20531 2.47676,-5.80298 1.44522,-10.4398 1.77578,-15.31246 z"
       id="path914"
       sodipodi:nodetypes="cccc" /><path
       style="opacity:1;fill:#6c5d53;stroke:none;stroke-width:8.417;stroke-linecap:round;stroke-linejoin:round;stroke-miterlimit:14.5"
       d="m 107.30832,169.39095 c 0.34781,-1.04196 0.84791,-1.65738 1.59646,-2.16129 l -2.38125,-3.25153 -2.54771,-3.62717 1.62167,-0.47387 c 2.52228,3.08993 5.13742,5.85959 7.95312,7.9375 0.52742,0.74494 0.41756,1.70967 0.39057,2.64583 -0.45466,-0.71351 -0.76587,-1.52323 -1.59681,-1.98437 -0.67651,0.18267 0.0298,1.62985 0.26458,2.64583 -0.74772,-1.04244 -1.31224,-2.30396 -2.64583,-2.64582 -0.75202,-0.57905 -1.65107,0.52038 -2.6548,0.91489 z"
       id="path1075"
       sodipodi:nodetypes="ccccccccccc" /><path
       style="opacity:1;fill:#6c5d53;stroke:none;stroke-width:8.417;stroke-linecap:round;stroke-linejoin:round;stroke-miterlimit:14.5"
       d="m 109.3678,158.64528 1.38907,-0.62035 c 1.45061,2.02943 3.38863,3.17154 5.74917,3.54445 -0.1195,-0.29728 0.31923,-0.50356 0.97244,-0.67486 0.37518,0.0301 0.58556,0.20365 0.42214,0.70246 1.85519,0.18919 1.43275,1.11112 1.98437,1.71968 -0.60536,-0.1893 -1.21516,-0.39354 -1.57388,0.24961 -0.28546,0.22466 -0.77181,-0.10311 -0.80737,0.80873 0.25747,-0.6457 -0.95306,-1.31924 -1.71979,-1.98437 -1.0651,-0.33456 -2.13739,-0.79024 -3.175,-0.66146 z"
       id="path1077"
       sodipodi:nodetypes="ccccccccccc" /><path
       style="opacity:1;fill:#6c5d53;stroke:none;stroke-width:8.417;stroke-linecap:round;stroke-linejoin:round;stroke-miterlimit:14.5"
       d="m 86.919132,172.39227 c 1.256733,-3.03103 2.329299,-6.11229 4.023434,-9.02403 -2.001848,2.99554 -3.261592,6.05293 -4.797798,9.08728 0.363122,-0.21329 0.72596,-0.42606 0.77428,-0.0727"
       id="path1748"
       sodipodi:nodetypes="cccc" /><path
       style="opacity:1;fill:#6c5d53;stroke:none;stroke-width:8.417;stroke-linecap:round;stroke-linejoin:round;stroke-miterlimit:14.5"
       d="m 95.258873,164.10945 c 2.198025,-2.04776 4.831247,-3.48625 7.672377,-4.63366 0.5347,-0.19717 1.04677,-1.71146 -3.251899,-0.0943 -1.41532,0.47848 -2.492518,1.00517 -3.334508,2.1962 -0.646325,0.9239 -0.787464,1.70572 -1.08597,2.5318 z"
       id="path1750"
       sodipodi:nodetypes="ccccc" /></g><g
     inkscape:groupmode="layer"
     id="g2238"
     inkscape:label="canary ill"
     style="display:inline"
     transform="matrix(0.538088,0,0,0.538088,-38.198874,-63.702379)"><path
       style="display:inline;opacity:1;fill:#6c5d53;stroke:none;stroke-width:8.417;stroke-linecap:round;stroke-linejoin:round;stroke-miterlimit:14.5"
       d="m 103.66533,171.76147 c 0.26579,-1.7116 1.40743,-2.88791 -0.6908,-3.69165 -1.76223,-1.27231 -3.472099,-2.61437 -5.200092,-3.93229 1.284332,-1.58315 2.573822,-0.19052 3.903072,0.63616 2.42256,1.56046 5.14094,2.65282 7.71799,3.8365 0.66672,0.75027 1.45998,3.2295 -0.035,1.34214 -2.05865,-1.60218 -1.02565,1.10228 -0.11938,1.87024 -1.75805,-1.76093 -4.10156,-2.71563 -5.57576,-0.0611 z"
       id="path2230"
       sodipodi:nodetypes="ccccccccccc" /><path
       style="display:inline;opacity:1;fill:#6c5d53;stroke:none;stroke-width:8.417;stroke-linecap:round;stroke-linejoin:round;stroke-miterlimit:14.5"
       d="m 99.332559,165.75596 c 1.393651,-2.03477 2.834301,0.83231 4.652141,0.82333 1.78764,0.71173 2.92785,-0.10104 4.20811,-0.65373 0.0761,0.50404 3.26148,0.98692 2.03128,1.65175 -1.62921,0.003 -1.1658,2.47977 -2.27424,0.81182 -1.71417,-1.48756 -4.02313,0.0896 -5.68986,-1.02425 -0.97581,-0.53631 -1.95162,-1.07261 -2.927431,-1.60892 z"
       id="path2232"
       sodipodi:nodetypes="ccccccccccc" /><path
       style="opacity:1;fill:#bfa940;fill-opacity:1;stroke:none;stroke-width:8.417;stroke-linecap:round;stroke-linejoin:round;stroke-miterlimit:14.5"
       d="m 74.747515,168.44365 c -2.418878,0.50668 -3.78629,-2.68939 -1.691123,-3.8889 1.202443,-1.24653 2.404885,-2.49306 3.607328,-3.73959 -1.541909,-0.7048 -5.290129,1.38979 -4.925623,0.99715 4.229521,-3.90459 9.784666,-5.91595 14.365194,-9.26715 1.590347,-1.38325 2.933532,-4.13586 -0.201707,-4.18964 -3.887702,-1.85052 -8.276944,-1.89988 -12.480097,-2.30229 -1.047009,-2.36674 3.874904,-2.00161 5.597016,-2.43563 5.333874,-0.5924 10.733183,-0.55385 16.060275,-1.02324 6.120022,-1.49881 12.473482,-1.76076 18.746122,-1.45261 3.82658,-2.16688 8.64406,-3.89257 12.85114,-1.67999 2.64246,1.34501 5.63096,3.31463 6.19108,6.43785 0.24938,1.69121 -1.68407,1.70844 -2.76118,2.29262 -2.71995,1.42832 -6.32178,0.52702 -8.62425,2.77965 -1.55786,3.33364 3.78716,5.327 6.26577,3.43244 -3.34585,3.97502 -6.27418,8.46899 -10.68833,11.37516 -6.74657,0.82183 -13.86515,0.86248 -20.110529,-2.19462 -2.863167,-0.95891 -5.700158,-2.81675 -8.672237,-2.95394 -5.233745,0.98487 -9.688474,4.29051 -13.528849,7.81273 z"
       id="path2204"
       sodipodi:nodetypes="ccccccccccccccccccc" /><path
       style="opacity:1;fill:#a05a2c;stroke:none;stroke-width:8.417;stroke-linecap:round;stroke-linejoin:round;stroke-miterlimit:14.5"
       d="m 113.99901,148.05396 c -1.26234,3.499 -4.71528,0.34392 -7.07478,0.022 -6.07973,-1.9204 -12.512374,-1.79566 -18.809115,-1.91241 -3.702095,-0.26076 -7.326416,-1.11439 -10.988049,-1.67875 8.909016,-0.70698 17.735071,-2.4905 26.705454,-2.35066 3.554,-0.25021 7.37948,1.08999 9.79731,3.74702 0.46834,0.59395 0.77082,1.45924 0.36918,2.17277 z"
       id="path2206"
       sodipodi:nodetypes="ccccccc" /><path
       style="opacity:1;fill:#554400;stroke:none;stroke-width:8.417;stroke-linecap:round;stroke-linejoin:round;stroke-miterlimit:14.5"
       d="m 91.276049,161.33771 c 2.571449,2.21668 5.759524,3.50224 9.087241,4.0363 1.33589,0.27733 3.73812,0.81633 1.1705,-0.09 -3.369605,-1.43413 -6.659493,-3.14271 -10.257741,-3.94631 z"
       id="path2208"
       sodipodi:nodetypes="ccccc" /><path
       style="opacity:1;fill:#806600;stroke:none;stroke-width:8.417;stroke-linecap:round;stroke-linejoin:round;stroke-miterlimit:14.5"
       d="m 122.97225,145.90441 c 1.42554,2.93571 5.61918,-0.073 2.58054,-1.96129 -1.08182,-1.23029 -3.34736,0.71177 -2.58054,1.96129 z"
       id="path2210"
       sodipodi:nodetypes="cccccc" /><path
       style="opacity:1;fill:#2b2200;stroke:none;stroke-width:6.27632;stroke-linecap:round;stroke-linejoin:round;stroke-miterlimit:14.5"
       d="m 123.4729,145.93852 c 1.39269,2.53353 4.36484,-1.05983 1.38245,-1.81182 -0.71807,-0.0968 -1.86039,1.08416 -1.38245,1.81182 z"
       id="path2212"
       sodipodi:nodetypes="cccccc" /><circle
       style="opacity:1;fill:#000000;stroke:none;stroke-width:8.417;stroke-linecap:round;stroke-linejoin:round;stroke-miterlimit:14.5"
       id="circle2214"
       cx="186.31664"
       cy="44.935879"
       r="0.99214995"
       transform="rotate(35.797615)" /><path
       style="display:inline;opacity:1;fill:#917c6f;stroke:none;stroke-width:8.417;stroke-linecap:round;stroke-linejoin:round;stroke-miterlimit:14.5"
       d="m 128.45627,154.09997 c 1.32599,-0.46809 4.71016,1.27822 2.40824,-0.80505 -1.04828,-1.19609 -2.09657,-2.39218 -3.14485,-3.58827 -0.24485,1.0494 -0.48969,2.09879 -0.73454,3.14819 0.49038,0.41504 0.98077,0.83009 1.47115,1.24513 z"
       id="path2216"
       sodipodi:nodetypes="ccccc" /><path
       style="opacity:1;fill:#806600;stroke:none;stroke-width:8.417;stroke-linecap:round;stroke-linejoin:round;stroke-miterlimit:14.5"
       d="m 101.70771,150.6745 c 3.16287,-0.12289 6.70343,0.68007 9.5825,0.6197 1.62581,-1.2175 -2.86082,-1.27767 -3.4119,-2.65713 -2.46493,-2.32183 -5.12347,-5.79799 -8.963492,-5.13456 -1.777846,0.56783 -4.548836,-0.4305 -5.640755,0.44867 0.437126,1.21921 4.698438,0.74483 1.744546,1.51713 -1.154401,-0.15105 2.936358,1.13578 4.063098,1.19077 -2.597574,1.11823 -7.217971,-0.6632 -8.656851,-0.42813 2.439554,1.05506 5.012355,1.71493 7.693648,1.90372 1.440512,0.33127 5.934606,0.0822 2.599726,1.32938 -2.445075,1.13585 -0.23757,1.23944 0.98948,1.21045 z"
       id="path2218"
       sodipodi:nodetypes="cccccccccccc" /><path
       style="opacity:1;fill:#aa8800;stroke:none;stroke-width:8.417;stroke-linecap:round;stroke-linejoin:round;stroke-miterlimit:14.5"
       d="m 107.07908,150.4666 c -2.12729,1.24596 -3.14708,-2.42235 -0.51054,-1.2718 0.71813,0.25977 1.21948,0.68617 0.51054,1.2718 z"
       id="path2220"
       sodipodi:nodetypes="ccccc" /><path
       style="opacity:1;fill:#806600;stroke:none;stroke-width:8.417;stroke-linecap:round;stroke-linejoin:round;stroke-miterlimit:14.5"
       d="m 75.345665,145.64674 c -3.127998,-0.94226 1.839111,-0.75504 2.860666,-0.51168 3.067673,0.26608 6.092918,1.26963 8.79108,2.71079 -1.854836,-0.24614 -4.108902,-1.0102 -6.157065,-1.2467 -1.832471,-0.31198 -3.671743,-0.58675 -5.494681,-0.95241 z"
       id="path2222"
       sodipodi:nodetypes="ccccc" /><path
       style="opacity:1;fill:#e28547;fill-opacity:1;stroke:none;stroke-width:8.417;stroke-linecap:round;stroke-linejoin:round;stroke-miterlimit:14.5"
       d="m 132.63192,146.83019 c -2.83964,1.53132 -6.2045,1.87283 -9.24468,2.69584 -4.08955,0.22793 -2.19394,6.70252 1.14453,6.25258 1.90969,0.0361 5.14872,-1.13875 3.02192,-3.49682 -0.83434,-3.26936 3.99278,-4.11241 3.80241,-0.49432 0.80459,1.88377 1.45246,-4.41378 1.27582,-4.95728 z"
       id="path2224"
       sodipodi:nodetypes="cscccc" /><path
       style="opacity:1;fill:#504416;stroke:none;stroke-width:8.417;stroke-linecap:round;stroke-linejoin:round;stroke-miterlimit:14.5"
       d="m 130.93221,148.38273 c -3.54768,-0.1401 -3.8302,4.0553 -0.96285,5.35451 2.81309,2.44843 3.51862,-2.03529 2.45421,-3.91052 -0.37767,-1.12897 -0.0252,-1.9522 -1.49136,-1.44399 z"
       id="path2226"
       sodipodi:nodetypes="cccccc" /><path
       style="opacity:1;fill:#a05a2c;stroke:none;stroke-width:8.417;stroke-linecap:round;stroke-linejoin:round;stroke-miterlimit:14.5"
       d="m 127.1702,155.21167 c -8.09945,5.41056 -17.81411,9.62616 -27.760132,8.09972 -3.521372,-0.48813 -6.924426,-1.57727 -10.246085,-2.81419 7.924211,2.65033 15.561137,7.61968 24.251567,6.70966 3.40284,0.0527 6.05705,-2.2631 8.19961,-4.65583 2.05504,-2.28909 3.59736,-4.97363 5.55504,-7.33936 z"
       id="path2228"
       sodipodi:nodetypes="cccc" /><path
       style="opacity:1;fill:#6c5d53;stroke:none;stroke-width:8.417;stroke-linecap:round;stroke-linejoin:round;stroke-miterlimit:14.5"
       d="m 76.253323,161.19542 c 1.838294,-1.2501 3.945653,-1.97386 5.964583,-2.8632 -1.500469,0.87676 -7.115294,1.53575 -5.959123,2.85549"
       id="path2234"
       sodipodi:nodetypes="cccc" /><path
       style="opacity:1;fill:#6c5d53;stroke:none;stroke-width:8.417;stroke-linecap:round;stroke-linejoin:round;stroke-miterlimit:14.5"
       d="m 85.28526,161.45812 c 3.163205,-0.71094 6.587804,0.66202 9.526217,0.4877 -1.605807,-1.87855 -5.121979,-2.63013 -7.541912,-1.75874 -0.731466,0.30534 -1.341654,0.82105 -1.984305,1.27104 z"
       id="path2236"
       sodipodi:nodetypes="ccccc" /><path
       id="path2359"
       style="opacity:0.6;fill:#21b21c;fill-opacity:1;stroke:none;stroke-width:7.78963;stroke-linecap:round;stroke-linejoin:round;stroke-miterlimit:14.5"
       d="m 126.27322,121.80849 c -1.00438,0.004 -2.08772,0.20622 -2.83406,0.9306 -1.00297,0.45681 -1.44939,1.56553 -1.68601,2.57114 -0.20976,0.67485 -0.32308,1.44214 0.0411,2.08968 0.22477,0.51951 0.76833,0.73003 1.28511,0.78023 0.54412,0.26093 1.08327,0.74413 1.15495,1.37374 -0.18194,0.47676 -0.008,1.07141 0.34899,1.42709 0.40773,0.35733 0.98052,0.15299 1.47001,0.21432 0.84888,0.0134 1.7869,0.072 2.50939,-0.45439 0.24584,-0.60083 -0.22777,-1.19617 -0.11778,-1.79994 0.24484,-0.51296 0.95186,-0.33996 1.38394,-0.59096 0.76945,-0.25998 1.59706,-0.7134 1.85505,-1.5399 0.1571,-1.45172 -0.4959,-2.95538 -1.66378,-3.83112 -0.76912,-0.66485 -1.73941,-1.16167 -2.778,-1.13583 -0.32239,-0.0233 -0.6457,-0.0378 -0.96895,-0.0347 z m -1.31763,2.43934 c 1.26124,-0.0586 1.35505,2.08476 0,2.03695 -1.3141,0.008 -1.3138,-2.04181 0,-2.03695 z m 3.43141,0 c 1.26013,-0.0574 1.35372,2.08357 0,2.03695 -1.3141,0.008 -1.3138,-2.04181 0,-2.03695 z m -1.98893,2.36059 c 0.53097,-0.10365 0.72152,0.47437 0.81997,0.87485 0.11915,0.22375 0.2008,0.82197 -0.28433,0.65983 -0.4416,0.1616 -0.17053,-0.80694 -0.55505,-0.52438 -0.24795,0.14691 -0.10212,0.62442 -0.5091,0.47924 -0.34596,-0.007 -0.008,-0.46099 5.2e-4,-0.6742 0.11048,-0.25473 0.15423,-0.78346 0.52799,-0.81534 z" /><path
       id="path2359-3"
       style="display:inline;opacity:0.6;fill:#21b21c;fill-opacity:1;stroke:none;stroke-width:3.9894;stroke-linecap:round;stroke-linejoin:round;stroke-miterlimit:14.5"
       d="m 118.77466,131.20431 c -0.51439,0.002 -1.06921,0.10561 -1.45144,0.4766 -0.51367,0.23395 -0.7423,0.80177 -0.86348,1.31679 -0.10743,0.34562 -0.16546,0.73858 0.0211,1.07021 0.11512,0.26607 0.3935,0.37388 0.65816,0.39959 0.27867,0.13364 0.55479,0.3811 0.5915,0.70355 -0.0932,0.24417 -0.004,0.54872 0.17873,0.73088 0.20881,0.183 0.50217,0.0784 0.75286,0.10976 0.43474,0.007 0.91515,0.0369 1.28516,-0.23271 0.1259,-0.30771 -0.11665,-0.61261 -0.0603,-0.92183 0.1254,-0.26271 0.48749,-0.17411 0.70877,-0.30266 0.39408,-0.13314 0.81793,-0.36536 0.95006,-0.78864 0.0805,-0.74349 -0.25398,-1.51358 -0.8521,-1.96208 -0.39389,-0.3405 -0.89082,-0.59495 -1.42273,-0.58171 -0.16511,-0.0119 -0.33069,-0.0194 -0.49624,-0.0178 z m -0.67481,1.24929 c 0.64593,-0.03 0.69398,1.06769 0,1.04321 -0.67301,0.004 -0.67286,-1.0457 0,-1.04321 z m 1.75737,0 c 0.64537,-0.0294 0.69329,1.06708 0,1.04321 -0.67301,0.004 -0.67286,-1.0457 0,-1.04321 z m -1.01862,1.20896 c 0.27193,-0.0531 0.36952,0.24294 0.41995,0.44804 0.061,0.1146 0.10283,0.42097 -0.14563,0.33793 -0.22615,0.0828 -0.0873,-0.41327 -0.28426,-0.26856 -0.12699,0.0752 -0.0523,0.3198 -0.26073,0.24544 -0.17718,-0.004 -0.004,-0.23609 2.7e-4,-0.34528 0.0566,-0.13046 0.079,-0.40125 0.2704,-0.41757 z" /><path
       id="path2359-3-1"
       style="display:inline;opacity:0.6;fill:#21b21c;fill-opacity:1;stroke:none;stroke-width:3.9894;stroke-linecap:round;stroke-linejoin:round;stroke-miterlimit:14.5"
       d="m 130.10612,133.62033 c -0.51439,0.002 -1.06921,0.10561 -1.45144,0.4766 -0.51367,0.23395 -0.7423,0.80177 -0.86348,1.31679 -0.10743,0.34562 -0.16546,0.73858 0.0211,1.07021 0.11512,0.26607 0.3935,0.37388 0.65816,0.39959 0.27867,0.13364 0.55479,0.3811 0.5915,0.70355 -0.0932,0.24417 -0.004,0.54872 0.17873,0.73088 0.20881,0.183 0.50217,0.0784 0.75286,0.10976 0.43474,0.007 0.91515,0.0369 1.28516,-0.23271 0.1259,-0.30771 -0.11665,-0.61261 -0.0603,-0.92183 0.1254,-0.26271 0.48749,-0.17411 0.70877,-0.30266 0.39408,-0.13314 0.81793,-0.36536 0.95006,-0.78864 0.0805,-0.74349 -0.25398,-1.51358 -0.8521,-1.96208 -0.39389,-0.3405 -0.89082,-0.59495 -1.42273,-0.58171 -0.16511,-0.0119 -0.33069,-0.0194 -0.49624,-0.0178 z m -0.67481,1.24929 c 0.64593,-0.03 0.69398,1.06769 0,1.04321 -0.67301,0.004 -0.67286,-1.0457 0,-1.04321 z m 1.75737,0 c 0.64537,-0.0294 0.69329,1.06708 0,1.04321 -0.67301,0.004 -0.67286,-1.0457 0,-1.04321 z m -1.01862,1.20896 c 0.27193,-0.0531 0.36952,0.24294 0.41995,0.44804 0.061,0.1146 0.10283,0.42097 -0.14563,0.33793 -0.22615,0.0828 -0.0873,-0.41327 -0.28426,-0.26856 -0.12699,0.0752 -0.0523,0.3198 -0.26073,0.24544 -0.17718,-0.004 -0.004,-0.23609 2.7e-4,-0.34528 0.0566,-0.13046 0.079,-0.40125 0.2704,-0.41757 z" /></g><g
     inkscape:groupmode="layer"
     id="g1828"
     inkscape:label="canary dead"
     style="display:inline"
     transform="matrix(-0.45993881,-0.27927582,0.27927582,-0.45993881,24.829428,118.92284)"><path
       style="opacity:1;fill:#ffcc00;stroke:none;stroke-width:8.417;stroke-linecap:round;stroke-linejoin:round;stroke-miterlimit:14.5"
       d="m 99.810133,173.69223 c -1.688416,1.17092 -3.078264,3.12757 -3.924154,1.35371 l -3.504745,-3.44288 c -1.641434,1.11625 -0.528129,4.3319 -1.789455,7.10179 -3.672647,-6.31258 -2.832701,-14.71734 0.07764,-21.89252 0.463305,-4.50811 -0.411266,-4.86664 -1.74068,-3.81441 -4.486512,0.52713 -7.628966,2.52106 -11.59098,4.85099 -3.86154,-0.059 4.796511,-6.77183 14.501399,-14.37599 3.471438,-4.18258 8.237932,-8.3614 14.684352,-12.53535 2.68473,-5.3377 5.17119,-9.13128 12.56773,-9.16048 3.4892,0.0793 6.10212,1.26325 6.15154,3.16966 l -2.1016,3.30563 c -1.80867,2.34838 -5.38183,4.40027 -4.53501,7.19484 3.05805,2.30842 5.18071,0.87769 6.96736,-1.89617 -0.40886,5.15122 -0.0799,10.27957 -2.01557,15.47812 -6.72043,6.02196 -10.77467,8.58417 -17.92817,10.05275 -2.28909,0.48908 -5.52286,1.45794 -7.786998,1.97938 -3.501164,3.22946 3.275678,6.1112 1.967337,12.63093 z"
       id="path1794"
       sodipodi:nodetypes="ccccccccccccccccccc" /><path
       style="opacity:1;fill:#a05a2c;stroke:none;stroke-width:8.417;stroke-linecap:round;stroke-linejoin:round;stroke-miterlimit:14.5"
       d="m 110.70784,136.44214 c 0.37924,3.07001 -0.48576,2.5547 -3.00611,3.29824 -4.21198,1.24429 -7.810751,2.51655 -14.922776,7.37542 -2.930758,2.25201 -5.366339,3.81248 -8.476418,5.27194 -2.052044,0.96445 -3.605389,1.78251 -5.588759,2.7268 7.113344,-5.96652 11.026587,-10.80321 20.285519,-17.52725 3.151534,-3.01411 11.272254,-4.23004 11.708544,-1.14515 z"
       id="path1796"
       sodipodi:nodetypes="ccccccc" /><path
       style="opacity:1;fill:#554400;stroke:none;stroke-width:8.417;stroke-linecap:round;stroke-linejoin:round;stroke-miterlimit:14.5"
       d="m 100.0475,160.50763 c 1.30396,-0.0484 2.22973,0.16796 3.92832,-0.15667 2.20567,-0.19219 3.70914,-1.0316 5.39198,-1.70568 1.12855,-0.48688 1.99023,-0.89863 2.83245,-1.30489 -4.05249,1.04767 -8.22335,1.48895 -12.15275,3.16724 z"
       id="path1798"
       sodipodi:nodetypes="ccccc" /><path
       style="display:inline;opacity:1;fill:#917c6f;stroke:none;stroke-width:8.417;stroke-linecap:round;stroke-linejoin:round;stroke-miterlimit:14.5"
       d="m 125.97041,132.88959 c -0.15857,-0.17318 -0.15944,0.57739 2.50361,-0.53633 l -5.67083,-2.59618 1.24568,2.98311 z"
       id="path1806"
       sodipodi:nodetypes="ccccc" /><path
       style="opacity:1;fill:#806600;stroke:none;stroke-width:8.417;stroke-linecap:round;stroke-linejoin:round;stroke-miterlimit:14.5"
       d="m 102.27133,145.75711 c 2.6596,-1.67246 5.27694,-3.71945 8.02252,-4.6298 l 0.31747,-1.33712 c -5.09324,1.7437 -6.54767,-0.24392 -10.660081,0.0586 -1.12109,0.084 -2.233984,0.27429 -3.305976,0.99523 -1.530971,1.30023 -2.6886,2.57577 -5.366501,3.95183 0.431385,1.57147 2.174303,-0.2242 3.311305,-0.46428 -0.360421,0.50614 -0.316557,1.12936 -1.43451,1.34598 1.365198,-0.4561 -0.006,0.46734 4.637133,-1.6413 -0.902463,1.89938 -5.069445,3.24252 -7.604168,4.86378 3.780146,-1.72202 -0.230632,1.49055 11.340438,-5.16607 -0.48804,1.40083 -2.85288,4.65531 0.74237,2.02319 z"
       id="path1808"
       sodipodi:nodetypes="cccccccccccc" /><path
       style="opacity:1;fill:#aa8800;stroke:none;stroke-width:8.417;stroke-linecap:round;stroke-linejoin:round;stroke-miterlimit:14.5"
       d="m 106.50638,142.44664 c -0.59384,1.00776 -1.36708,1.04902 -2.17513,0.90272 -0.42963,-0.50077 -0.4886,-0.98616 0.4995,-1.4281 0.73581,-0.35848 1.28542,-0.38338 1.69251,-0.15296 z"
       id="path1810"
       sodipodi:nodetypes="ccccc" /><path
       style="opacity:1;fill:#806600;stroke:none;stroke-width:8.417;stroke-linecap:round;stroke-linejoin:round;stroke-miterlimit:14.5"
       d="m 77.948535,157.09894 c -0.956594,0.50356 -1.473361,0.56185 -1.266653,-0.11228 2.665186,-1.44432 4.552,-3.1858 8.484764,-4.14618 3.426351,-0.99288 3.677012,-0.87878 3.52171,-0.62317 -3.638559,1.18985 -7.159902,3.25426 -10.739821,4.88163 z"
       id="path1812"
       sodipodi:nodetypes="ccccc" /><path
       style="opacity:1;fill:#ff7f2a;stroke:none;stroke-width:8.417;stroke-linecap:round;stroke-linejoin:round;stroke-miterlimit:14.5"
       d="m 125.24278,124.94675 c -0.8712,1.26606 -1.58475,2.72702 -2.81484,3.84026 -1.6691,1.51055 -3.34599,3.16049 -4.38689,5.08691 0.64518,3.6293 2.74482,2.43283 4.35748,2.85211 1.61203,-1.13325 3.09982,-2.30941 3.57188,-3.83644 -1.22849,-0.58105 -2.65569,-0.84542 -2.71198,-3.29466 -0.0959,-0.80903 0.57866,-1.26566 1.52135,-1.59967 0.58113,-0.32713 4.68554,4.19162 1.72007,-1.01346 -0.117,-0.59257 -0.48477,-1.25636 -1.25707,-2.03505 z"
       id="path1814"
       sodipodi:nodetypes="csccccccc" /><path
       style="opacity:1;fill:#504416;stroke:none;stroke-width:8.417;stroke-linecap:round;stroke-linejoin:round;stroke-miterlimit:14.5"
       d="m 124.63447,126.80417 c -1.45404,1.88752 -2.01585,2.97079 -1.26888,3.3187 1.01405,0.96895 1.7551,2.21034 4.58919,1.36302 1.75422,-0.0509 1.14205,-0.93587 1.05564,-1.63553 -0.54157,-1.80673 -2.37595,-2.56281 -3.56918,-3.83994 z"
       id="path1816"
       sodipodi:nodetypes="cccccc" /><path
       style="opacity:1;fill:#a05a2c;stroke:none;stroke-width:8.417;stroke-linecap:round;stroke-linejoin:round;stroke-miterlimit:14.5"
       d="m 125.57755,134.54353 c -7.40781,19.54845 -17.46045,23.67918 -27.734756,26.51777 8.129716,-2.59265 17.696476,-2.81593 24.495406,-9.58883 1.28877,-1.0861 1.87183,-2.48671 2.30597,-3.97202 1.37396,-4.74077 0.64876,-8.76142 0.93338,-12.95692 z"
       id="path1818"
       sodipodi:nodetypes="ccccc" /><path
       style="opacity:1;fill:#6c5d53;stroke:none;stroke-width:8.417;stroke-linecap:round;stroke-linejoin:round;stroke-miterlimit:14.5"
       d="m 107.30832,169.39095 c 0.34781,-1.04196 0.84791,-1.65738 1.59646,-2.16129 l -2.38125,-3.25153 -2.54771,-3.62717 1.62167,-0.47387 c 2.52228,3.08993 5.13742,5.85959 7.95312,7.9375 0.52742,0.74494 0.41756,1.70967 0.39057,2.64583 -0.45466,-0.71351 -0.76587,-1.52323 -1.59681,-1.98437 -0.67651,0.18267 0.0298,1.62985 0.26458,2.64583 -0.74772,-1.04244 -1.31224,-2.30396 -2.64583,-2.64582 -0.75202,-0.57905 -1.65107,0.52038 -2.6548,0.91489 z"
       id="path1820"
       sodipodi:nodetypes="ccccccccccc" /><path
       style="opacity:1;fill:#6c5d53;stroke:none;stroke-width:8.417;stroke-linecap:round;stroke-linejoin:round;stroke-miterlimit:14.5"
       d="m 109.3678,158.64528 1.38907,-0.62035 c 1.45061,2.02943 3.38863,3.17154 5.74917,3.54445 -0.1195,-0.29728 0.31923,-0.50356 0.97244,-0.67486 0.37518,0.0301 0.58556,0.20365 0.42214,0.70246 1.85519,0.18919 1.43275,1.11112 1.98437,1.71968 -0.60536,-0.1893 -1.21516,-0.39354 -1.57388,0.24961 -0.28546,0.22466 -0.77181,-0.10311 -0.80737,0.80873 0.25747,-0.6457 -0.95306,-1.31924 -1.71979,-1.98437 -1.0651,-0.33456 -2.13739,-0.79024 -3.175,-0.66146 z"
       id="path1822"
       sodipodi:nodetypes="ccccccccccc" /><path
       style="opacity:1;fill:#6c5d53;stroke:none;stroke-width:8.417;stroke-linecap:round;stroke-linejoin:round;stroke-miterlimit:14.5"
       d="m 92.725974,171.95485 c 1.256733,-3.03103 -1.988268,-5.79429 -1.783408,-8.58661 -0.87885,3.00778 2.54525,5.61551 1.009044,8.64986 0.363122,-0.21329 0.72596,-0.42606 0.77428,-0.0727"
       id="path1824"
       sodipodi:nodetypes="cccc" /><path
       style="opacity:1;fill:#6c5d53;stroke:none;stroke-width:8.417;stroke-linecap:round;stroke-linejoin:round;stroke-miterlimit:14.5"
       d="m 95.258873,164.10945 c 2.198025,-2.04776 4.831247,-3.48625 7.672377,-4.63366 0.5347,-0.19717 1.04677,-1.71146 -3.251899,-0.0943 -1.41532,0.47848 -2.492518,1.00517 -3.334508,2.1962 -0.646325,0.9239 -0.787464,1.70572 -1.08597,2.5318 z"
       id="path1826"
       sodipodi:nodetypes="ccccc" /><path
       id="rect1988"
       style="opacity:1;fill:#000000;stroke:none;stroke-width:15.6424;stroke-linecap:round;stroke-linejoin:round;stroke-miterlimit:14.5"
       d="m 119.94339,128.89811 -1.36531,-0.91952 0.92702,-1.37646 -1.27769,-0.8605 -0.92702,1.37646 -1.39956,-0.94258 -0.8605,1.27769 1.39956,0.94257 -0.93507,1.38842 1.27769,0.86049 0.93507,-1.3884 1.36531,0.91951 z" /><path
       id="path2013"
       style="opacity:0.2;fill:#afdde9;stroke:none;stroke-width:15.6424;stroke-linecap:round;stroke-linejoin:round;stroke-miterlimit:14.5"
       d="m 142.24907,168.63908 c 0.71803,-0.46175 1.48786,-1.33061 1.60367,-2.35123 -0.10485,-1.37314 1.1735,-2.4472 0.93414,-3.9109 -0.0607,-2.33765 -1.06724,-4.57539 -2.4045,-6.45427 -1.85938,-2.1992 -5.23441,-2.74408 -6.52374,-5.48333 -0.63032,-1.26438 -0.19315,-2.70895 -0.33866,-4.06049 -0.10687,-2.48184 -0.29745,-5.01115 -1.09075,-7.37894 -0.72661,-1.9581 -2.87472,-2.68527 -4.72151,-3.16655 1.01943,2.06876 0.7478,4.43005 0.30154,6.60652 -0.56341,3.06135 -0.74945,6.20205 -0.51006,9.30373 0.10924,1.4757 1.10652,2.76826 2.50914,3.25153 2.47863,0.96314 4.74794,2.53005 6.27603,4.7349 -2.82701,1.94613 -1.39247,3.89305 -2.99079,5.30381 -0.44338,0.57735 -2.43692,1.48535 -0.92639,1.80131 0.7886,0.13903 0.9269,0.38473 1.66232,-0.0328 -0.0186,0.63143 0.70202,1.26322 -1.30562,2.66714 -0.11432,0.8488 1.94701,0.41828 2.44295,0.67293 1.07296,-0.62525 0.4406,-1.53738 1.40225,-0.87665 0.84502,0.18705 1.71875,0.0504 2.65192,-0.24739 0.34471,-0.13488 0.69091,-0.2313 1.02806,-0.3793 z m -1.73439,-0.72658 c -0.3679,0.22321 -0.84361,0.11164 -1.06251,-0.24919 -0.21853,-0.36062 -0.0979,-0.83358 0.26948,-1.05685 0.36762,-0.22365 0.84347,-0.11268 1.06283,0.24787 0.21938,0.36097 0.0985,0.83495 -0.2698,1.05817 z"
       sodipodi:nodetypes="ccccccccccccccccccccccccc" /></g></svg>
