<?xml version="1.0" encoding="UTF-8" standalone="no"?>
<!-- Created with Inkscape (http://www.inkscape.org/) -->

<svg
   width="128"
   height="128"
   viewBox="0 0 33.866666 33.866666"
   version="1.1"
   id="svg5"
   xml:space="preserve"
   inkscape:version="1.2.1 (9c6d41e410, 2022-07-14)"
   sodipodi:docname="canary.svg"
   inkscape:export-filename="canary-alive.png"
   inkscape:export-xdpi="96"
   inkscape:export-ydpi="96"
   xmlns:inkscape="http://www.inkscape.org/namespaces/inkscape"
   xmlns:sodipodi="http://sodipodi.sourceforge.net/DTD/sodipodi-0.dtd"
   xmlns="http://www.w3.org/2000/svg"
   xmlns:svg="http://www.w3.org/2000/svg"><sodipodi:namedview
     id="namedview7"
     pagecolor="#ffffff"
     bordercolor="#000000"
     borderopacity="0.25"
     inkscape:showpageshadow="2"
     inkscape:pageopacity="0.0"
     inkscape:pagecheckerboard="0"
     inkscape:deskcolor="#d1d1d1"
     inkscape:document-units="mm"
     showgrid="false"
     inkscape:zoom="4.1020923"
     inkscape:cx="85.078534"
     inkscape:cy="91.78243"
     inkscape:window-width="1920"
     inkscape:window-height="1001"
     inkscape:window-x="-9"
     inkscape:window-y="916"
     inkscape:window-maximized="1"
     inkscape:current-layer="g1828" /><defs
     id="defs2" /><g
     inkscape:groupmode="layer"
     id="layer2"
     inkscape:label="canary alive"
     style="display:inline"
     transform="matrix(0.538088,0,0,0.538088,-38.198874,-63.702379)"><path
       style="opacity:1;fill:#ffcc00;stroke:none;stroke-width:8.417;stroke-linecap:round;stroke-linejoin:round;stroke-miterlimit:14.5"
       d="m 90.797837,175.93911 c -1.688416,1.17092 -3.007581,1.05124 -3.853471,-0.72262 l -0.03019,-3.37899 c -1.641434,1.11625 -3.031168,3.32751 -4.292494,6.0974 1.379509,-6.27238 5.137396,-13.94739 8.047741,-21.12257 0.463305,-4.50811 -0.411266,-4.86664 -1.74068,-3.81441 -4.486512,0.52713 -8.341111,3.22628 -12.303125,5.55621 -3.86154,-0.059 5.508656,-7.47705 15.213544,-15.08121 3.471438,-4.18258 8.237928,-8.3614 14.684348,-12.53535 2.68473,-5.3377 5.17119,-9.13128 12.56773,-9.16048 3.4892,0.0793 6.10212,1.26325 6.15154,3.16966 l -2.1016,3.30563 c -1.80867,2.34838 -5.38183,4.40027 -4.53501,7.19484 3.05805,2.30842 5.18071,0.87769 6.96736,-1.89617 -0.40886,5.15122 -0.0799,10.27957 -2.01557,15.47812 -6.72043,6.02196 -10.77467,8.58417 -17.92817,10.05275 -2.28909,0.48908 -5.52286,1.45794 -7.786994,1.97938 -3.501164,3.22946 -5.736618,8.35808 -7.044959,14.87781 z"
       id="path433"
       sodipodi:nodetypes="cccccccccccccccccc" /><path
       style="opacity:1;fill:#a05a2c;stroke:none;stroke-width:8.417;stroke-linecap:round;stroke-linejoin:round;stroke-miterlimit:14.5"
       d="m 110.70784,136.44214 c 0.37924,3.07001 -0.48576,2.5547 -3.00611,3.29824 -4.21198,1.24429 -7.810751,2.51655 -14.922776,7.37542 -2.930758,2.25201 -5.366339,3.81248 -8.476418,5.27194 -2.052044,0.96445 -3.605389,1.78251 -5.588759,2.7268 7.113344,-5.96652 11.026587,-10.80321 20.285519,-17.52725 3.151534,-3.01411 11.272254,-4.23004 11.708544,-1.14515 z"
       id="path1071"
       sodipodi:nodetypes="ccccccc" /><path
       style="opacity:1;fill:#554400;stroke:none;stroke-width:8.417;stroke-linecap:round;stroke-linejoin:round;stroke-miterlimit:14.5"
       d="m 100.0475,160.50763 c 1.30396,-0.0484 2.22973,0.16796 3.92832,-0.15667 2.20567,-0.19219 3.70914,-1.0316 5.39198,-1.70568 1.12855,-0.48688 1.99023,-0.89863 2.83245,-1.30489 -4.05249,1.04767 -8.22335,1.48895 -12.15275,3.16724 z"
       id="path1079"
       sodipodi:nodetypes="ccccc" /><path
       style="opacity:1;fill:#806600;stroke:none;stroke-width:8.417;stroke-linecap:round;stroke-linejoin:round;stroke-miterlimit:14.5"
       d="m 116.72861,129.45 c 0.72269,0.16027 1.34387,0.15987 1.96576,0.1606 0.56085,-0.51859 1.27166,-0.89793 1.19062,-2.01267 -0.28784,-0.54479 -0.70473,-1.03497 -1.80798,-1.23473 -0.55486,0.0411 -0.99678,-0.28552 -1.81177,0.60284 -0.13979,0.94686 -0.64026,2.03942 0.46337,2.48396 z"
       id="path585"
       sodipodi:nodetypes="cccccc" /><path
       style="opacity:1;fill:#2b2200;stroke:none;stroke-width:6.27632;stroke-linecap:round;stroke-linejoin:round;stroke-miterlimit:14.5"
       d="m 117.15463,129.18483 c 0.51983,0.12389 0.96665,0.12358 1.41398,0.12414 0.40342,-0.40087 0.9147,-0.69411 0.85641,-1.55581 -0.20704,-0.42113 -0.50691,-0.80004 -1.30048,-0.95446 -0.39911,0.0318 -0.71699,-0.22071 -1.30321,0.466 -0.10055,0.73193 -0.46054,1.57649 0.3333,1.92013 z"
       id="path585-4"
       sodipodi:nodetypes="cccccc" /><circle
       style="opacity:1;fill:#000000;stroke:none;stroke-width:8.417;stroke-linecap:round;stroke-linejoin:round;stroke-miterlimit:14.5"
       id="path740"
       cx="117.96094"
       cy="127.97395"
       r="0.99214995" /><path
       style="display:inline;opacity:1;fill:#917c6f;stroke:none;stroke-width:8.417;stroke-linecap:round;stroke-linejoin:round;stroke-miterlimit:14.5"
       d="m 125.97041,132.88959 c -0.15857,-0.17318 0.39719,-0.58448 3.06024,-1.6982 l -6.22746,-1.43431 1.24568,2.98311 z"
       id="path1136"
       sodipodi:nodetypes="ccccc" /><path
       style="opacity:1;fill:#806600;stroke:none;stroke-width:8.417;stroke-linecap:round;stroke-linejoin:round;stroke-miterlimit:14.5"
       d="m 102.27133,145.75711 c 2.6596,-1.67246 5.27694,-3.71945 8.02252,-4.6298 l 0.31747,-1.33712 c -5.09324,1.7437 -6.54767,-0.24392 -10.660081,0.0586 -1.12109,0.084 -2.233984,0.27429 -3.305976,0.99523 -1.530971,1.30023 -2.6886,2.57577 -5.366501,3.95183 0.431385,1.57147 2.174303,-0.2242 3.311305,-0.46428 -0.360421,0.50614 -0.316557,1.12936 -1.43451,1.34598 1.365198,-0.4561 -0.006,0.46734 4.637133,-1.6413 -0.902463,1.89938 -5.069445,3.24252 -7.604168,4.86378 3.780146,-1.72202 -0.230632,1.49055 11.340438,-5.16607 -0.48804,1.40083 -2.85288,4.65531 0.74237,2.02319 z"
       id="path796"
       sodipodi:nodetypes="cccccccccccc" /><path
       style="opacity:1;fill:#aa8800;stroke:none;stroke-width:8.417;stroke-linecap:round;stroke-linejoin:round;stroke-miterlimit:14.5"
       d="m 106.50638,142.44664 c -0.59384,1.00776 -1.36708,1.04902 -2.17513,0.90272 -0.42963,-0.50077 -0.4886,-0.98616 0.4995,-1.4281 0.73581,-0.35848 1.28542,-0.38338 1.69251,-0.15296 z"
       id="path798"
       sodipodi:nodetypes="ccccc" /><path
       style="opacity:1;fill:#806600;stroke:none;stroke-width:8.417;stroke-linecap:round;stroke-linejoin:round;stroke-miterlimit:14.5"
       d="m 77.948535,157.09894 c -0.956594,0.50356 -1.473361,0.56185 -1.266653,-0.11228 2.665186,-1.44432 4.552,-3.1858 8.484764,-4.14618 3.426351,-0.99288 3.677012,-0.87878 3.52171,-0.62317 -3.638559,1.18985 -7.159902,3.25426 -10.739821,4.88163 z"
       id="path800"
       sodipodi:nodetypes="ccccc" /><path
       style="opacity:1;fill:#ff7f2a;stroke:none;stroke-width:8.417;stroke-linecap:round;stroke-linejoin:round;stroke-miterlimit:14.5"
       d="m 125.24278,124.94675 c -0.8712,1.26606 -1.58475,2.72702 -2.81484,3.84026 -1.6691,1.51055 -3.34599,3.16049 -4.38689,5.08691 0.64518,3.6293 2.74482,2.43283 4.35748,2.85211 1.61203,-1.13325 3.09982,-2.30941 3.57188,-3.83644 -1.22849,-0.58105 -2.65569,-0.84542 -2.71198,-3.29466 -0.0959,-0.80903 0.57866,-1.26566 1.52135,-1.59967 0.58113,-0.32713 4.68554,4.19162 1.72007,-1.01346 -0.117,-0.59257 -0.48477,-1.25636 -1.25707,-2.03505 z"
       id="path802"
       sodipodi:nodetypes="csccccccc" /><path
       style="opacity:1;fill:#504416;stroke:none;stroke-width:8.417;stroke-linecap:round;stroke-linejoin:round;stroke-miterlimit:14.5"
       d="m 124.63447,126.80417 c -1.45404,1.88752 -2.01585,2.97079 -1.26888,3.3187 1.01405,0.96895 1.7551,2.21034 4.58919,1.36302 1.75422,-0.0509 1.14205,-0.93587 1.05564,-1.63553 -0.54157,-1.80673 -2.37595,-2.56281 -3.56918,-3.83994 z"
       id="path858"
       sodipodi:nodetypes="cccccc" /><path
       style="opacity:1;fill:#a05a2c;stroke:none;stroke-width:8.417;stroke-linecap:round;stroke-linejoin:round;stroke-miterlimit:14.5"
       d="m 125.57755,134.54353 c -7.40781,19.54845 -17.46045,23.67918 -27.734756,26.51777 8.731906,-2.78469 19.121626,-2.83601 25.958976,-11.20531 2.47676,-5.80298 1.44522,-10.4398 1.77578,-15.31246 z"
       id="path914"
       sodipodi:nodetypes="cccc" /><path
       style="opacity:1;fill:#6c5d53;stroke:none;stroke-width:8.417;stroke-linecap:round;stroke-linejoin:round;stroke-miterlimit:14.5"
       d="m 107.30832,169.39095 c 0.34781,-1.04196 0.84791,-1.65738 1.59646,-2.16129 l -2.38125,-3.25153 -2.54771,-3.62717 1.62167,-0.47387 c 2.52228,3.08993 5.13742,5.85959 7.95312,7.9375 0.52742,0.74494 0.41756,1.70967 0.39057,2.64583 -0.45466,-0.71351 -0.76587,-1.52323 -1.59681,-1.98437 -0.67651,0.18267 0.0298,1.62985 0.26458,2.64583 -0.74772,-1.04244 -1.31224,-2.30396 -2.64583,-2.64582 -0.75202,-0.57905 -1.65107,0.52038 -2.6548,0.91489 z"
       id="path1075"
       sodipodi:nodetypes="ccccccccccc" /><path
       style="opacity:1;fill:#6c5d53;stroke:none;stroke-width:8.417;stroke-linecap:round;stroke-linejoin:round;stroke-miterlimit:14.5"
       d="m 109.3678,158.64528 1.38907,-0.62035 c 1.45061,2.02943 3.38863,3.17154 5.74917,3.54445 -0.1195,-0.29728 0.31923,-0.50356 0.97244,-0.67486 0.37518,0.0301 0.58556,0.20365 0.42214,0.70246 1.85519,0.18919 1.43275,1.11112 1.98437,1.71968 -0.60536,-0.1893 -1.21516,-0.39354 -1.57388,0.24961 -0.28546,0.22466 -0.77181,-0.10311 -0.80737,0.80873 0.25747,-0.6457 -0.95306,-1.31924 -1.71979,-1.98437 -1.0651,-0.33456 -2.13739,-0.79024 -3.175,-0.66146 z"
       id="path1077"
       sodipodi:nodetypes="ccccccccccc" /><path
       style="opacity:1;fill:#6c5d53;stroke:none;stroke-width:8.417;stroke-linecap:round;stroke-linejoin:round;stroke-miterlimit:14.5"
       d="m 86.919132,172.39227 c 1.256733,-3.03103 2.329299,-6.11229 4.023434,-9.02403 -2.001848,2.99554 -3.261592,6.05293 -4.797798,9.08728 0.363122,-0.21329 0.72596,-0.42606 0.77428,-0.0727"
       id="path1748"
       sodipodi:nodetypes="cccc" /><path
       style="opacity:1;fill:#6c5d53;stroke:none;stroke-width:8.417;stroke-linecap:round;stroke-linejoin:round;stroke-miterlimit:14.5"
       d="m 95.258873,164.10945 c 2.198025,-2.04776 4.831247,-3.48625 7.672377,-4.63366 0.5347,-0.19717 1.04677,-1.71146 -3.251899,-0.0943 -1.41532,0.47848 -2.492518,1.00517 -3.334508,2.1962 -0.646325,0.9239 -0.787464,1.70572 -1.08597,2.5318 z"
       id="path1750"
       sodipodi:nodetypes="ccccc" /></g><g
     inkscape:groupmode="layer"
     id="g1828"
     inkscape:label="canary dead"
     style="display:none"
     transform="matrix(-0.45993881,-0.27927582,0.27927582,-0.45993881,24.829428,118.92284)"><path
       style="opacity:1;fill:#ffcc00;stroke:none;stroke-width:8.417;stroke-linecap:round;stroke-linejoin:round;stroke-miterlimit:14.5"
       d="m 99.810133,173.69223 c -1.688416,1.17092 -3.078264,3.12757 -3.924154,1.35371 l -3.504745,-3.44288 c -1.641434,1.11625 -0.528129,4.3319 -1.789455,7.10179 -3.672647,-6.31258 -2.832701,-14.71734 0.07764,-21.89252 0.463305,-4.50811 -0.411266,-4.86664 -1.74068,-3.81441 -4.486512,0.52713 -7.628966,2.52106 -11.59098,4.85099 -3.86154,-0.059 4.796511,-6.77183 14.501399,-14.37599 3.471438,-4.18258 8.237932,-8.3614 14.684352,-12.53535 2.68473,-5.3377 5.17119,-9.13128 12.56773,-9.16048 3.4892,0.0793 6.10212,1.26325 6.15154,3.16966 l -2.1016,3.30563 c -1.80867,2.34838 -5.38183,4.40027 -4.53501,7.19484 3.05805,2.30842 5.18071,0.87769 6.96736,-1.89617 -0.40886,5.15122 -0.0799,10.27957 -2.01557,15.47812 -6.72043,6.02196 -10.77467,8.58417 -17.92817,10.05275 -2.28909,0.48908 -5.52286,1.45794 -7.786998,1.97938 -3.501164,3.22946 3.275678,6.1112 1.967337,12.63093 z"
       id="path1794"
       sodipodi:nodetypes="ccccccccccccccccccc" /><path
       style="opacity:1;fill:#a05a2c;stroke:none;stroke-width:8.417;stroke-linecap:round;stroke-linejoin:round;stroke-miterlimit:14.5"
       d="m 110.70784,136.44214 c 0.37924,3.07001 -0.48576,2.5547 -3.00611,3.29824 -4.21198,1.24429 -7.810751,2.51655 -14.922776,7.37542 -2.930758,2.25201 -5.366339,3.81248 -8.476418,5.27194 -2.052044,0.96445 -3.605389,1.78251 -5.588759,2.7268 7.113344,-5.96652 11.026587,-10.80321 20.285519,-17.52725 3.151534,-3.01411 11.272254,-4.23004 11.708544,-1.14515 z"
       id="path1796"
       sodipodi:nodetypes="ccccccc" /><path
       style="opacity:1;fill:#554400;stroke:none;stroke-width:8.417;stroke-linecap:round;stroke-linejoin:round;stroke-miterlimit:14.5"
       d="m 100.0475,160.50763 c 1.30396,-0.0484 2.22973,0.16796 3.92832,-0.15667 2.20567,-0.19219 3.70914,-1.0316 5.39198,-1.70568 1.12855,-0.48688 1.99023,-0.89863 2.83245,-1.30489 -4.05249,1.04767 -8.22335,1.48895 -12.15275,3.16724 z"
       id="path1798"
       sodipodi:nodetypes="ccccc" /><path
       style="display:inline;opacity:1;fill:#917c6f;stroke:none;stroke-width:8.417;stroke-linecap:round;stroke-linejoin:round;stroke-miterlimit:14.5"
       d="m 125.97041,132.88959 c -0.15857,-0.17318 -0.15944,0.57739 2.50361,-0.53633 l -5.67083,-2.59618 1.24568,2.98311 z"
       id="path1806"
       sodipodi:nodetypes="ccccc" /><path
       style="opacity:1;fill:#806600;stroke:none;stroke-width:8.417;stroke-linecap:round;stroke-linejoin:round;stroke-miterlimit:14.5"
       d="m 102.27133,145.75711 c 2.6596,-1.67246 5.27694,-3.71945 8.02252,-4.6298 l 0.31747,-1.33712 c -5.09324,1.7437 -6.54767,-0.24392 -10.660081,0.0586 -1.12109,0.084 -2.233984,0.27429 -3.305976,0.99523 -1.530971,1.30023 -2.6886,2.57577 -5.366501,3.95183 0.431385,1.57147 2.174303,-0.2242 3.311305,-0.46428 -0.360421,0.50614 -0.316557,1.12936 -1.43451,1.34598 1.365198,-0.4561 -0.006,0.46734 4.637133,-1.6413 -0.902463,1.89938 -5.069445,3.24252 -7.604168,4.86378 3.780146,-1.72202 -0.230632,1.49055 11.340438,-5.16607 -0.48804,1.40083 -2.85288,4.65531 0.74237,2.02319 z"
       id="path1808"
       sodipodi:nodetypes="cccccccccccc" /><path
       style="opacity:1;fill:#aa8800;stroke:none;stroke-width:8.417;stroke-linecap:round;stroke-linejoin:round;stroke-miterlimit:14.5"
       d="m 106.50638,142.44664 c -0.59384,1.00776 -1.36708,1.04902 -2.17513,0.90272 -0.42963,-0.50077 -0.4886,-0.98616 0.4995,-1.4281 0.73581,-0.35848 1.28542,-0.38338 1.69251,-0.15296 z"
       id="path1810"
       sodipodi:nodetypes="ccccc" /><path
       style="opacity:1;fill:#806600;stroke:none;stroke-width:8.417;stroke-linecap:round;stroke-linejoin:round;stroke-miterlimit:14.5"
       d="m 77.948535,157.09894 c -0.956594,0.50356 -1.473361,0.56185 -1.266653,-0.11228 2.665186,-1.44432 4.552,-3.1858 8.484764,-4.14618 3.426351,-0.99288 3.677012,-0.87878 3.52171,-0.62317 -3.638559,1.18985 -7.159902,3.25426 -10.739821,4.88163 z"
       id="path1812"
       sodipodi:nodetypes="ccccc" /><path
       style="opacity:1;fill:#ff7f2a;stroke:none;stroke-width:8.417;stroke-linecap:round;stroke-linejoin:round;stroke-miterlimit:14.5"
       d="m 125.24278,124.94675 c -0.8712,1.26606 -1.58475,2.72702 -2.81484,3.84026 -1.6691,1.51055 -3.34599,3.16049 -4.38689,5.08691 0.64518,3.6293 2.74482,2.43283 4.35748,2.85211 1.61203,-1.13325 3.09982,-2.30941 3.57188,-3.83644 -1.22849,-0.58105 -2.65569,-0.84542 -2.71198,-3.29466 -0.0959,-0.80903 0.57866,-1.26566 1.52135,-1.59967 0.58113,-0.32713 4.68554,4.19162 1.72007,-1.01346 -0.117,-0.59257 -0.48477,-1.25636 -1.25707,-2.03505 z"
       id="path1814"
       sodipodi:nodetypes="csccccccc" /><path
       style="opacity:1;fill:#504416;stroke:none;stroke-width:8.417;stroke-linecap:round;stroke-linejoin:round;stroke-miterlimit:14.5"
       d="m 124.63447,126.80417 c -1.45404,1.88752 -2.01585,2.97079 -1.26888,3.3187 1.01405,0.96895 1.7551,2.21034 4.58919,1.36302 1.75422,-0.0509 1.14205,-0.93587 1.05564,-1.63553 -0.54157,-1.80673 -2.37595,-2.56281 -3.56918,-3.83994 z"
       id="path1816"
       sodipodi:nodetypes="cccccc" /><path
       style="opacity:1;fill:#a05a2c;stroke:none;stroke-width:8.417;stroke-linecap:round;stroke-linejoin:round;stroke-miterlimit:14.5"
       d="m 125.57755,134.54353 c -7.40781,19.54845 -17.46045,23.67918 -27.734756,26.51777 8.129716,-2.59265 17.696476,-2.81593 24.495406,-9.58883 1.28877,-1.0861 1.87183,-2.48671 2.30597,-3.97202 1.37396,-4.74077 0.64876,-8.76142 0.93338,-12.95692 z"
       id="path1818"
       sodipodi:nodetypes="ccccc" /><path
       style="opacity:1;fill:#6c5d53;stroke:none;stroke-width:8.417;stroke-linecap:round;stroke-linejoin:round;stroke-miterlimit:14.5"
       d="m 107.30832,169.39095 c 0.34781,-1.04196 0.84791,-1.65738 1.59646,-2.16129 l -2.38125,-3.25153 -2.54771,-3.62717 1.62167,-0.47387 c 2.52228,3.08993 5.13742,5.85959 7.95312,7.9375 0.52742,0.74494 0.41756,1.70967 0.39057,2.64583 -0.45466,-0.71351 -0.76587,-1.52323 -1.59681,-1.98437 -0.67651,0.18267 0.0298,1.62985 0.26458,2.64583 -0.74772,-1.04244 -1.31224,-2.30396 -2.64583,-2.64582 -0.75202,-0.57905 -1.65107,0.52038 -2.6548,0.91489 z"
       id="path1820"
       sodipodi:nodetypes="ccccccccccc" /><path
       style="opacity:1;fill:#6c5d53;stroke:none;stroke-width:8.417;stroke-linecap:round;stroke-linejoin:round;stroke-miterlimit:14.5"
       d="m 109.3678,158.64528 1.38907,-0.62035 c 1.45061,2.02943 3.38863,3.17154 5.74917,3.54445 -0.1195,-0.29728 0.31923,-0.50356 0.97244,-0.67486 0.37518,0.0301 0.58556,0.20365 0.42214,0.70246 1.85519,0.18919 1.43275,1.11112 1.98437,1.71968 -0.60536,-0.1893 -1.21516,-0.39354 -1.57388,0.24961 -0.28546,0.22466 -0.77181,-0.10311 -0.80737,0.80873 0.25747,-0.6457 -0.95306,-1.31924 -1.71979,-1.98437 -1.0651,-0.33456 -2.13739,-0.79024 -3.175,-0.66146 z"
       id="path1822"
       sodipodi:nodetypes="ccccccccccc" /><path
       style="opacity:1;fill:#6c5d53;stroke:none;stroke-width:8.417;stroke-linecap:round;stroke-linejoin:round;stroke-miterlimit:14.5"
       d="m 92.725974,171.95485 c 1.256733,-3.03103 -1.988268,-5.79429 -1.783408,-8.58661 -0.87885,3.00778 2.54525,5.61551 1.009044,8.64986 0.363122,-0.21329 0.72596,-0.42606 0.77428,-0.0727"
       id="path1824"
       sodipodi:nodetypes="cccc" /><path
       style="opacity:1;fill:#6c5d53;stroke:none;stroke-width:8.417;stroke-linecap:round;stroke-linejoin:round;stroke-miterlimit:14.5"
       d="m 95.258873,164.10945 c 2.198025,-2.04776 4.831247,-3.48625 7.672377,-4.63366 0.5347,-0.19717 1.04677,-1.71146 -3.251899,-0.0943 -1.41532,0.47848 -2.492518,1.00517 -3.334508,2.1962 -0.646325,0.9239 -0.787464,1.70572 -1.08597,2.5318 z"
       id="path1826"
       sodipodi:nodetypes="ccccc" /><path
       id="rect1988"
       style="opacity:1;fill:#000000;stroke:none;stroke-width:15.6424;stroke-linecap:round;stroke-linejoin:round;stroke-miterlimit:14.5"
       d="m 119.94339,128.89811 -1.36531,-0.91952 0.92702,-1.37646 -1.27769,-0.8605 -0.92702,1.37646 -1.39956,-0.94258 -0.8605,1.27769 1.39956,0.94257 -0.93507,1.38842 1.27769,0.86049 0.93507,-1.3884 1.36531,0.91951 z" /><path
       style="opacity:0.2;fill:#afdde9;stroke:none;stroke-width:15.6424;stroke-linecap:round;stroke-linejoin:round;stroke-miterlimit:14.5"
       d="m 129.70775,135.83398 c 1.80167,4.14027 -0.38873,6.03404 -0.2941,13.36046 -0.27969,6.66566 2.48773,4.7757 6.45267,7.96734 2.44788,2.01204 4.5911,5.08918 5.00831,9.93468 5.32912,-1.30322 4.30143,-6.54823 2.26574,-9.97994 -1.61934,-3.59496 -6.77872,-3.56874 -7.62753,-7.74857 0.0621,-2.60759 0.0189,-4.70593 -0.36472,-7.23968 -0.57415,-3.77641 -1.04312,-5.13833 -5.44038,-6.29429 z"
       id="path2013"
       sodipodi:nodetypes="ccccccccc" /></g></svg>
